<?xml version="1.0" encoding="UTF-8"?> <svg xmlns="http://www.w3.org/2000/svg" xmlns:xlink="http://www.w3.org/1999/xlink" version="1.1" id="Calque_1" x="0px" y="0px" viewBox="0 0 600 200" style="enable-background:new 0 0 600 200;" xml:space="preserve"> <style type="text/css"> .st0{opacity:0.6;fill-rule:evenodd;clip-rule:evenodd;fill:#1B53CC;enable-background:new ;} .st1{opacity:0.8;fill-rule:evenodd;clip-rule:evenodd;fill:#1B53CC;enable-background:new ;} .st2{opacity:0.9;} .st3{fill:#1B53CC;} </style> <g> <path class="st0" d="M105.3,48.2L150,92.9c4.2,4.2,4.2,11.1,0,15.3l-31.6,31.6c-12.6-23,14.1-35.1,6.8-55.5 c-5-14-23.4-26.9-35.2-36.3C94.3,43.9,101.1,44,105.3,48.2L105.3,48.2z M110.5,147.8c-25.6-34.3,27.1-43.4,3.2-75.3 c21.6,35.7-44.8,41.7-13.5,83.4L110.5,147.8z"></path> <path class="st1" d="M57.4,120.4l-4.3-4.3c5.7-9.4,15.4-14.7,23-18.6c5.9-3,12.2-5.7,17.9-9.6c3-2,6.4-5.4,7.5-10.4 c1.1-5.3-1.9-12.1-5.3-17.7c12,30.4-26.1,27.3-54.1,41.4c-0.2-3,0.9-6.1,3.1-8.3l44.6-44.6C132.4,99.6,70.1,91.6,57.4,120.4z"></path> </g> <g class="st2"> <path class="st3" d="M200.3,111.2h-4v10.9h-14.6V78.7h20.9c12.1,0,19.8,6.3,19.8,16.4c0,6.3-3,11-8.2,13.6l9.1,13.4h-15.6 L200.3,111.2z M201.6,90h-5.3v10.2h5.3c4,0,5.9-1.9,5.9-5.1C207.6,91.9,205.6,90,201.6,90z"></path> <path class="st3" d="M226.1,100.4c0-13.1,10.3-22.7,24.5-22.7c14.1,0,24.5,9.5,24.5,22.7s-10.3,22.7-24.5,22.7 C236.4,123.1,226.1,113.6,226.1,100.4z M260.3,100.4c0-6.8-4.3-10.8-9.7-10.8s-9.7,4.1-9.7,10.8c0,6.8,4.3,10.8,9.7,10.8 C256,111.3,260.3,107.2,260.3,100.4z"></path> <path class="st3" d="M309.3,114.6h-16.5l-2.9,7.6H275l19-43.4h14.4l19,43.4h-15.1L309.3,114.6z M305.3,104l-4.2-10.9l-4.2,10.9 H305.3z"></path> <path class="st3" d="M329.7,78.7h21.4c14.5,0,24.5,8.2,24.5,21.7s-10,21.7-24.5,21.7h-21.4V78.7z M350.4,110.7 c6.1,0,10.3-3.7,10.3-10.3c0-6.6-4.2-10.3-10.3-10.3h-6.1v20.6C344.3,110.7,350.4,110.7,350.4,110.7z"></path> <path class="st3" d="M379.1,100.4c0-13.3,10.2-22.7,24.2-22.7c8.5,0,15.2,3.1,19.5,8.7l-9.2,8.2c-2.5-3.2-5.6-5.1-9.5-5.1 c-6.1,0-10.2,4.2-10.2,10.8c0,6.6,4.1,10.8,10.2,10.8c3.9,0,6.9-1.9,9.5-5.1l9.2,8.2c-4.3,5.6-11,8.7-19.5,8.7 C389.4,123.1,379.1,113.8,379.1,100.4z"></path> <path class="st3" d="M455.9,114.6h-16.5l-2.9,7.6h-14.9l19-43.4H455l19,43.4h-15.1L455.9,114.6z M451.9,104l-4.2-10.9l-4.2,10.9 H451.9z"></path> <path class="st3" d="M494.9,111.2h-4v10.9h-14.6V78.7h20.9c12.1,0,19.8,6.3,19.8,16.4c0,6.3-3,11-8.2,13.6l9.1,13.4h-15.6 L494.9,111.2z M496.2,90h-5.3v10.2h5.3c4,0,5.9-1.9,5.9-5.1C502.2,91.9,500.3,90,496.2,90z"></path> <path class="st3" d="M558.5,111.1v11h-36.1V78.7h35.3v11h-20.9v5.1h18.3v10.5h-18.3v5.7h21.7V111.1z"></path> </g> </svg> 