<?xml version="1.0" standalone="no"?>
<!DOCTYPE svg PUBLIC "-//W3C//DTD SVG 20010904//EN"
 "http://www.w3.org/TR/2001/REC-SVG-20010904/DTD/svg10.dtd">
<svg version="1.0" xmlns="http://www.w3.org/2000/svg"
 width="630.000000pt" height="630.000000pt" viewBox="0 0 630.000000 630.000000"
 preserveAspectRatio="xMidYMid meet">

<g transform="translate(0.000000,630.000000) scale(0.100000,-0.100000)"
fill="#000000" stroke="none">
<path d="M3730 5868 c-307 -179 -465 -307 -664 -536 -155 -179 -255 -355 -336
-587 -82 -238 -91 -316 -97 -812 -3 -234 -9 -401 -14 -397 -5 3 -9 21 -9 40 0
34 -1 34 -37 32 -37 -3 -38 -4 -47 -53 -12 -74 -12 -73 -55 -86 -23 -7 -41
-16 -41 -20 0 -5 -10 -13 -21 -20 -27 -14 -39 1 -39 48 0 27 10 40 68 88 37
30 84 60 104 66 54 14 57 29 6 31 -108 5 -141 -6 -214 -74 -42 -39 -124 -156
-124 -178 0 -10 39 5 50 19 3 4 19 17 36 29 34 23 45 19 58 -24 5 -18 -1 -26
-36 -47 -24 -14 -52 -35 -63 -47 -11 -12 -37 -31 -57 -41 l-37 -19 10 33 c5
17 9 34 9 36 0 13 -44 -56 -71 -112 -17 -37 -34 -67 -37 -67 -3 0 -17 11 -31
24 -26 24 -157 66 -209 66 -68 0 -69 2 -66 110 3 110 17 151 63 174 36 19 50
70 50 188 0 74 -4 95 -25 135 -69 130 -228 211 -381 193 -106 -12 -197 -53
-249 -111 -30 -34 -78 -119 -70 -126 3 -3 1 -12 -5 -19 -12 -15 -13 -73 -2
-139 l9 -50 7 69 c7 63 24 111 49 143 8 10 24 0 66 -37 31 -28 66 -50 77 -50
25 0 85 28 85 39 0 4 17 17 39 29 21 12 44 29 51 37 7 8 22 13 34 10 11 -2 47
-9 78 -15 54 -11 59 -14 79 -55 19 -37 21 -53 14 -102 -4 -32 -6 -69 -5 -83 1
-14 2 -72 3 -130 0 -92 -3 -113 -28 -172 -15 -38 -31 -68 -36 -68 -5 0 -9 -5
-9 -11 0 -14 -58 -69 -73 -69 -6 0 -7 -3 -4 -6 15 -15 -13 -40 -43 -38 -26 2
-35 -4 -54 -34 -33 -51 -56 -68 -88 -64 -35 4 -35 16 -3 44 14 12 25 25 25 29
0 4 -24 10 -52 14 -65 9 -122 31 -113 45 5 9 -7 14 -26 12 -10 -2 -57 136 -65
186 -9 58 -15 47 -20 -39 -5 -75 -9 -89 -25 -89 -5 0 -9 26 -9 58 0 32 -4 83
-10 113 -5 30 -11 92 -15 139 -7 121 -20 218 -28 227 -4 4 -78 9 -165 11 -86
2 -159 6 -161 8 -4 4 28 96 56 162 14 32 16 88 14 402 -2 265 -6 367 -14 372
-7 4 -28 8 -47 8 -66 1 -68 11 -20 92 62 105 129 203 197 289 l59 74 -358 -21
c-196 -11 -359 -22 -361 -25 -6 -7 248 -808 254 -801 4 4 14 32 24 62 10 30
20 58 24 62 3 4 -3 -147 -14 -335 l-20 -342 -42 -3 -43 -3 0 -102 c0 -282 75
-647 201 -985 139 -370 276 -604 471 -807 l77 -80 1 50 0 50 98 -3 c53 -1 112
-2 130 -2 20 0 32 -5 32 -13 0 -10 39 -19 146 -32 134 -16 147 -16 162 -1 15
15 17 14 29 -6 11 -21 12 -22 12 -3 0 11 -6 47 -13 80 -13 61 -18 59 -29 -15
-3 -14 -5 21 -6 78 l-1 103 48 21 c64 29 249 32 300 5 l33 -18 -2 -150 c-1
-82 1 -152 3 -154 2 -3 39 -10 81 -16 79 -12 81 -13 92 -69 8 -41 18 -65 36
-89 l19 -23 22 27 c47 56 59 65 82 65 13 0 29 7 36 15 22 27 93 29 165 5 59
-20 69 -27 82 -58 8 -19 12 -44 9 -55 -5 -21 9 -47 26 -47 5 0 8 31 6 68 -1
37 1 72 4 77 6 10 117 5 224 -10 50 -7 51 -7 58 19 4 15 17 31 29 35 12 5 38
25 56 45 20 21 45 36 58 36 29 0 29 2 -3 56 -26 43 -26 47 -15 120 6 41 11
115 11 164 0 52 4 92 11 95 13 9 19 3 24 -24 2 -11 11 -49 21 -84 9 -34 16
-96 15 -137 0 -41 3 -90 7 -109 l7 -33 32 63 c17 35 34 76 38 92 3 15 13 35
23 45 10 10 18 34 19 56 1 21 5 41 10 45 10 7 15 27 16 69 1 17 5 32 9 32 4 0
8 8 8 18 0 11 3 13 8 5 4 -7 13 -9 21 -4 11 7 10 11 -4 18 -37 21 5 307 66
446 79 181 81 188 68 203 -14 17 -7 177 10 235 10 31 17 38 54 47 130 34 187
33 250 -3 33 -19 47 -33 47 -48 0 -12 -14 -73 -30 -136 -17 -62 -30 -115 -30
-117 0 -11 -30 11 -35 25 -3 11 -17 18 -40 19 -28 2 -33 -1 -29 -13 4 -8 -2
-27 -12 -43 -11 -15 -24 -39 -31 -54 -7 -16 -19 -28 -28 -28 -19 0 -48 -32
-51 -57 -1 -10 -7 -35 -12 -55 -6 -21 -6 -35 -1 -32 5 3 9 -4 9 -15 0 -17 6
-21 30 -21 l30 0 -20 -35 c-22 -40 -25 -49 -10 -40 18 11 22 -23 8 -53 -8 -15
-14 -38 -13 -50 1 -12 -3 -22 -8 -22 -5 0 -7 -6 -4 -13 3 -8 -1 -40 -9 -73 -8
-32 -17 -68 -19 -79 -14 -67 -30 -115 -38 -115 -5 0 -6 -7 -3 -16 3 -8 1 -25
-6 -37 -6 -12 -12 -39 -12 -60 -1 -36 -20 -62 -39 -50 -4 3 -7 -3 -5 -13 2
-13 -3 -19 -13 -18 -15 1 -16 -2 -3 -32 13 -31 11 -38 -7 -36 -3 0 -2 -27 2
-61 4 -34 5 -66 1 -72 -3 -5 -8 -37 -9 -70 -4 -77 -29 -155 -56 -178 -18 -15
-15 -14 18 3 47 24 76 25 115 5 36 -19 43 -8 31 44 -5 23 -6 41 -3 41 3 0 -4
10 -15 22 -48 52 -67 146 -38 184 8 10 15 27 15 36 0 24 53 76 84 84 15 4 32
1 41 -6 8 -7 23 -9 32 -5 17 6 17 7 -2 21 -20 15 -20 15 0 52 34 64 91 51 116
-27 7 -20 25 -61 41 -91 22 -42 29 -65 26 -100 l-3 -45 65 -23 c36 -13 88 -28
115 -32 28 -5 61 -12 74 -16 16 -5 22 -3 18 3 -4 6 -24 13 -45 17 -22 3 -57
13 -78 23 -21 9 -41 16 -44 16 -3 -1 -21 22 -40 50 -19 29 -40 58 -47 64 -6 7
-21 39 -33 70 -12 32 -25 62 -29 68 -9 11 -22 57 -26 94 -3 21 7 105 21 172
l5 26 57 -23 c31 -12 121 -42 199 -66 79 -23 143 -46 143 -50 0 -4 -5 -19 -11
-35 -6 -15 -10 -29 -10 -30 3 -11 -37 -92 -53 -110 -20 -21 -31 -77 -14 -67 5
3 29 -6 54 -20 54 -30 55 -30 48 -13 -2 7 3 13 13 13 10 1 52 4 94 8 l77 8 25
-55 c14 -30 28 -65 32 -77 l7 -21 -42 21 c-23 12 -44 20 -46 17 -4 -4 96 -61
109 -62 4 0 11 -6 16 -13 4 -7 17 -14 28 -15 13 0 20 -7 18 -17 -1 -8 3 -18 9
-22 8 -6 8 -8 0 -8 -6 0 -17 7 -24 15 -16 19 -30 19 -30 0 0 -9 -10 -15 -27
-16 l-28 -1 27 -8 c14 -4 62 -11 106 -15 78 -7 81 -6 96 18 17 25 35 115 56
273 17 132 32 185 60 205 14 10 78 32 142 48 65 17 135 39 157 51 60 30 116
26 213 -16 116 -49 126 -57 130 -100 3 -35 4 -35 67 68 36 57 89 155 118 218
l53 115 78 -4 c42 -3 95 -5 116 -5 l39 -1 138 610 c76 336 137 615 136 621 -4
22 -372 333 -382 323 -5 -5 -11 -90 -14 -189 l-3 -180 -88 0 c-49 0 -96 3
-105 6 -14 6 -15 37 -9 333 3 179 8 329 11 334 2 4 29 7 59 7 30 0 54 4 54 9
0 5 -19 53 -42 107 l-43 97 -306 -7 c-169 -3 -314 -3 -323 0 -23 9 -71 93 -59
105 9 9 274 40 469 54 51 4 98 11 105 16 11 6 4 22 -30 71 -53 75 -150 196
-180 222 -19 17 -21 17 -27 2 -8 -20 -30 -21 -38 0 -3 9 -6 31 -6 50 l0 34
-41 -21 c-53 -26 -66 -15 -44 37 16 38 16 38 -15 68 -16 17 -47 35 -67 41 -26
8 -38 17 -37 28 1 10 -21 35 -55 61 -64 49 -177 126 -185 126 -11 0 -52 -189
-112 -520 -19 -107 -40 -200 -47 -207 -7 -6 -76 -16 -157 -23 -325 -25 -595
-113 -676 -218 -38 -50 -69 -126 -79 -195 -4 -26 -9 -47 -12 -47 -3 0 -16 9
-30 20 -14 11 -36 20 -49 20 -13 0 -24 4 -24 9 0 6 -13 18 -30 28 -16 9 -30
24 -30 32 0 8 -11 0 -25 -19 -14 -19 -25 -43 -25 -54 -1 -48 -80 -173 -101
-160 -5 3 -7 20 -5 38 6 52 -5 60 -44 28 -19 -15 -44 -37 -56 -49 -12 -13 -30
-23 -40 -23 -16 0 -17 -2 -4 -10 13 -9 13 -10 0 -10 -9 0 -35 20 -58 45 -23
25 -50 45 -59 45 -25 0 -103 31 -99 39 3 4 -16 6 -40 6 -44 0 -45 1 -55 40 -6
22 -14 56 -20 75 -14 53 -11 97 6 97 8 0 16 -6 19 -14 7 -17 33 -17 39 0 4 7
6 6 6 -5 1 -9 -6 -18 -16 -20 -15 -3 -15 -4 0 -17 14 -11 18 -10 28 12 6 14 9
33 6 41 -6 15 -68 46 -97 49 -13 1 -15 14 -12 71 5 121 13 133 72 116 21 -6
40 -5 56 2 19 9 40 9 87 -2 34 -7 90 -14 124 -16 67 -3 142 -37 140 -64 0 -8
2 -27 6 -42 4 -15 3 -30 -3 -33 -6 -4 -9 -14 -6 -23 3 -10 10 -35 15 -58 l11
-41 55 1 c62 1 63 2 67 82 2 29 6 50 10 48 4 -2 9 0 13 6 3 5 1 10 -4 10 -6 0
-11 6 -11 13 1 6 10 1 21 -13 19 -22 20 -33 15 -100 -3 -41 -3 -80 1 -87 5 -6
9 10 9 35 3 70 31 167 65 222 70 113 248 177 665 240 115 17 212 36 215 41 7
12 16 173 24 444 7 217 9 225 38 225 45 1 -203 117 -433 202 -120 44 -430 139
-448 137 -4 0 -23 -10 -42 -21z m503 -585 c73 -21 158 -68 198 -109 42 -43 36
-49 -86 -97 -193 -76 -584 -265 -627 -304 -10 -9 -18 -24 -18 -35 0 -29 -27
-21 -33 10 -3 15 -2 28 3 30 4 2 -3 23 -16 48 -27 50 -30 74 -12 92 9 9 9 12
-1 12 -7 0 -9 5 -6 11 5 7 -5 8 -29 4 -23 -5 -36 -3 -36 4 0 6 -6 8 -14 5 -18
-7 -46 22 -46 48 0 14 5 18 16 14 9 -3 36 -6 60 -6 38 0 44 -3 44 -21 0 -32
21 -18 38 26 24 61 85 147 142 198 49 44 128 79 205 91 47 7 161 -4 218 -21z
m-838 -197 c2 -46 -4 -59 -21 -45 -9 7 -12 20 -8 33 6 18 5 19 -10 7 -14 -12
-16 -11 -16 4 0 11 -5 15 -15 11 -20 -7 -19 0 6 33 l21 29 21 -21 c11 -11 21
-34 22 -51z m85 23 c0 -5 4 -8 9 -4 12 7 25 -31 16 -45 -3 -5 -14 -10 -25 -10
-10 0 -21 -7 -24 -15 -10 -26 -46 -1 -39 27 8 34 63 75 63 47z m-236 -25 c4
-11 2 -12 -14 -1 -11 6 -20 15 -20 19 0 12 28 -3 34 -18z m311 -38 c-11 -8
-24 -12 -29 -8 -5 3 -1 9 10 13 31 12 39 10 19 -5z m-415 -43 c0 -11 -50 -33
-74 -33 -16 0 -18 -2 -7 -9 18 -11 5 -31 -20 -31 -34 0 -17 58 21 73 22 8 80
8 80 0z m-147 -130 c-5 -18 -65 -63 -84 -63 -5 0 -9 -6 -9 -14 0 -8 -6 -16
-14 -19 -8 -3 -13 0 -12 8 3 22 37 55 58 55 10 0 18 7 18 15 0 9 10 20 23 25
12 5 23 9 24 9 0 1 -1 -7 -4 -16z m642 -164 c11 -17 -1 -21 -15 -4 -8 9 -8 15
-2 15 6 0 14 -5 17 -11z m71 -20 c3 -6 1 -16 -5 -22 -9 -9 -14 -8 -21 3 -9 15
-4 30 10 30 5 0 12 -5 16 -11z m-66 -23 c0 -2 -7 -7 -16 -10 -8 -3 -12 -2 -9
4 6 10 25 14 25 6z m33 -47 c-7 -24 -8 -22 -17 15 -6 25 -5 28 7 17 8 -6 13
-21 10 -32z m-161 -26 c14 -16 29 -39 32 -53 6 -21 0 -17 -33 20 -22 25 -41
48 -41 53 0 15 17 6 42 -20z m55 -24 c3 -18 0 -17 -22 9 -31 37 -32 48 -3 28
12 -9 23 -25 25 -37z m24 34 c13 -16 12 -17 -3 -4 -17 13 -22 21 -14 21 2 0
10 -8 17 -17z m40 -46 c-8 -8 -11 -3 -11 19 1 25 2 27 11 11 8 -14 8 -22 0
-30z m833 -38 c64 -32 107 -92 114 -158 l5 -51 -59 0 c-33 -1 -84 -9 -114 -20
-30 -11 -66 -20 -80 -20 -49 -2 -81 -23 -96 -65 -19 -54 -19 -53 24 -54 107
-5 157 2 147 19 -14 23 78 14 130 -12 29 -15 36 -17 27 -6 -7 9 -26 21 -42 28
-16 7 -27 16 -24 21 3 5 -2 6 -10 3 -8 -3 -23 -1 -33 5 -16 9 -14 11 12 12 53
3 90 -2 106 -17 8 -8 24 -14 35 -14 20 0 68 -29 50 -30 -6 0 -1 -6 9 -14 18
-13 18 -14 -3 -32 -25 -21 -57 -108 -46 -125 4 -7 1 -10 -7 -7 -17 6 -40 -37
-42 -79 -1 -28 -4 -31 -26 -27 -19 4 -29 0 -36 -14 -5 -10 -16 -30 -24 -45
-14 -26 -12 -37 11 -69 22 -31 -8 -46 -103 -52 -80 -5 -87 -4 -92 14 -3 12
-14 20 -25 20 -11 0 -22 4 -24 9 -2 6 -29 6 -65 2 l-63 -7 -6 32 c-3 18 -17
42 -29 54 -31 29 -26 55 35 187 48 101 48 102 28 120 -31 28 -55 82 -68 151
-10 55 -9 67 8 105 26 56 97 123 158 147 64 26 152 22 218 -11z m-899 -69 c3
-5 1 -10 -4 -10 -6 0 -11 5 -11 10 0 6 2 10 4 10 3 0 8 -4 11 -10z m1251 -70
c7 -36 12 -78 13 -93 1 -25 -2 -28 -21 -22 -67 20 -96 41 -107 76 -16 53 -15
55 32 83 60 37 70 32 83 -44z m606 -19 c9 -8 48 -311 48 -373 0 -47 0 -48 -51
-74 -28 -14 -57 -23 -64 -21 -9 4 -14 51 -18 169 -8 221 -2 209 -96 206 l-76
-3 -22 -104 c-11 -57 -27 -107 -34 -112 -15 -9 -33 3 -62 39 -10 12 -23 22
-29 22 -10 0 -47 40 -48 52 0 4 14 2 31 -4 16 -6 32 -8 35 -6 2 3 16 52 31
109 14 57 30 107 36 110 12 8 309 -1 319 -10z m-622 -121 c0 -5 -7 -7 -15 -4
-8 4 -15 8 -15 10 0 2 7 4 15 4 8 0 15 -4 15 -10z m45 -20 c3 -6 -1 -7 -9 -4
-18 7 -21 14 -7 14 6 0 13 -4 16 -10z m55 -36 l25 -15 -25 7 c-14 3 -29 10
-34 15 -16 14 6 10 34 -7z m-200 -24 c0 -5 -4 -10 -10 -10 -5 0 -10 5 -10 10
0 6 5 10 10 10 6 0 10 -4 10 -10z m-1500 -45 c-1 -17 -101 -8 -120 11 -5 5 15
7 56 4 35 -3 64 -9 64 -15z m-1657 -92 c-7 -2 -19 -2 -25 0 -7 3 -2 5 12 5 14
0 19 -2 13 -5z m2973 -260 c-12 -12 -29 15 -21 34 7 17 8 16 18 -5 5 -12 7
-25 3 -29z m-423 1 c-4 -12 -8 -13 -14 -3 -9 15 -2 32 11 24 5 -3 6 -13 3 -21z
m-63 -34 c0 -5 -2 -10 -4 -10 -3 0 -8 5 -11 10 -3 6 -1 10 4 10 6 0 11 -4 11
-10z m530 0 c0 -5 -7 -10 -16 -10 -8 0 -12 5 -9 10 3 6 10 10 16 10 5 0 9 -4
9 -10z m-370 -34 c0 -38 17 -50 56 -40 24 6 25 5 22 -37 l-3 -44 -49 -3 c-61
-4 -80 12 -97 80 -11 46 -10 53 7 65 10 7 28 13 41 13 19 0 23 -5 23 -34z
m686 9 c38 -26 47 -66 31 -131 -8 -33 -12 -61 -9 -64 12 -9 13 -32 2 -46 -9
-10 -7 -19 7 -38 10 -14 24 -26 32 -26 7 0 11 -6 8 -14 -4 -9 3 -16 16 -20 18
-5 19 -8 7 -15 -24 -16 -4 -23 33 -13 44 12 55 -6 29 -46 -9 -14 -12 -23 -5
-19 6 4 -23 -61 -66 -145 -42 -84 -88 -178 -101 -208 -13 -30 -41 -81 -62
-112 -35 -53 -40 -57 -62 -47 -13 6 -29 22 -35 35 -7 16 -19 24 -36 24 -16 0
-25 6 -25 15 0 8 -4 16 -10 16 -5 1 -14 3 -20 4 -5 1 -16 3 -22 4 -7 1 -2 7
12 13 24 9 24 10 5 18 -22 9 -62 70 -46 70 6 0 11 4 11 10 0 5 -8 9 -17 8 -37
-3 -54 2 -47 14 4 7 3 8 -5 4 -7 -5 -30 4 -53 19 -35 23 -55 28 -122 32 -203
10 -272 54 -259 166 3 26 10 47 15 47 16 0 -3 21 -27 30 -17 7 -22 14 -18 29
4 17 11 20 42 15 20 -3 53 -12 74 -19 47 -19 52 -19 37 -1 -6 8 -28 20 -48 26
-20 6 -54 19 -75 28 l-38 17 6 52 c6 49 5 54 -17 62 -13 5 -30 17 -38 26 -12
15 -12 21 2 46 13 23 15 35 7 58 -6 17 -9 39 -7 50 5 32 29 10 30 -27 1 -26 4
-30 15 -20 9 7 12 21 8 37 -5 21 -4 23 8 12 10 -8 17 -9 22 -1 14 23 33 8 44
-35 6 -25 20 -54 31 -65 27 -27 88 -37 119 -18 22 12 26 21 24 60 -1 44 1 46
29 52 48 9 204 7 232 -4 30 -11 32 -24 12 -62 -9 -18 -11 -28 -4 -30 8 -3 7
-11 -1 -25 -18 -35 -13 -40 35 -41 38 -1 44 1 35 12 -16 19 15 49 43 42 24 -6
34 0 56 29 11 16 11 17 0 8 -31 -28 -71 -5 -57 31 5 12 13 13 37 6 19 -5 28
-5 25 1 -4 5 1 9 10 9 9 0 13 5 10 10 -10 16 0 12 25 -10 13 -11 25 -18 27
-16 8 8 -10 36 -23 36 -8 0 -14 5 -14 10 0 6 9 10 20 10 11 0 23 7 26 15 8 19
43 19 70 0z m-301 -5 c-28 -12 -55 -12 -55 0 0 6 17 10 38 9 30 0 33 -2 17 -9z
m-1318 -42 c-3 -8 -6 -5 -6 6 -1 11 2 17 5 13 3 -3 4 -12 1 -19z m13 -38 c0
-11 -2 -20 -4 -20 -2 0 -6 9 -9 20 -3 11 -1 20 4 20 5 0 9 -9 9 -20z m2351
-31 l256 -12 20 -47 20 -47 -102 -119 c-56 -65 -134 -153 -173 -194 l-71 -75
-98 102 c-77 79 -107 104 -141 114 -41 12 -42 13 -36 46 6 29 3 35 -15 40 -23
6 -27 24 -10 54 16 31 2 57 -33 61 -26 2 -33 9 -44 42 -8 21 -11 42 -8 47 3 5
45 7 92 5 48 -3 202 -11 343 -17z m-2396 -82 c4 -23 18 -69 31 -102 14 -33 29
-98 34 -145 6 -47 15 -109 20 -139 18 -99 17 -101 -39 -101 -87 0 -81 -21 -81
276 0 224 2 263 14 258 8 -3 18 -24 21 -47z m2030 -27 c3 -5 1 -10 -4 -10 -6
0 -11 5 -11 10 0 6 2 10 4 10 3 0 8 -4 11 -10z m-189 -138 c-18 -16 -19 -16
-12 1 3 10 6 24 6 30 0 8 4 7 12 -1 10 -9 8 -16 -6 -30z m-1298 -39 c8 -48 7
-52 -12 -57 -27 -7 -28 -5 -34 53 -4 42 -2 50 14 53 11 2 20 4 21 4 1 -1 5
-24 11 -53z m-2064 -245 c-8 -50 -18 -72 -51 -112 -49 -59 -70 -69 -136 -67
-34 1 -66 6 -73 12 -6 5 -15 5 -19 1 -5 -4 -5 -2 -2 4 5 8 18 9 42 4 24 -5 40
-4 52 6 10 7 25 14 33 14 8 0 23 10 33 23 9 12 28 36 42 53 14 18 25 36 25 40
0 7 50 62 58 63 1 1 -1 -18 -4 -41z m-375 -3 c13 -14 21 -28 17 -32 -3 -3 -6
-2 -6 4 0 5 -12 8 -27 6 -24 -4 -28 -1 -29 21 -2 33 14 33 45 1z m1293 -420
c-2 -250 -7 -384 -13 -375 -21 33 -48 150 -54 235 -5 69 -2 118 14 210 11 66
25 159 31 208 9 76 19 125 24 115 0 -2 0 -178 -2 -393z m1258 266 c0 -5 -7
-12 -16 -15 -14 -5 -15 -4 -4 9 14 17 20 19 20 6z m7 -103 c-3 -8 -6 -5 -6 6
-1 11 2 17 5 13 3 -3 4 -12 1 -19z m763 -32 c0 -3 -4 -8 -10 -11 -5 -3 -10 -1
-10 4 0 6 5 11 10 11 6 0 10 -2 10 -4z m-770 -30 c0 -25 -23 -56 -41 -56 -6 0
-7 -4 -4 -10 7 -11 0 -12 -32 -4 l-23 6 26 20 c14 12 23 27 20 35 -3 8 -2 11
4 8 5 -3 15 1 22 9 19 22 28 19 28 -8z m820 -22 c0 -8 -4 -14 -9 -14 -6 0 -9
9 -8 19 1 22 17 18 17 -5z m-1690 -104 c0 -5 -4 -10 -9 -10 -6 0 -13 5 -16 10
-3 6 1 10 9 10 9 0 16 -4 16 -10z m35 -20 c3 -5 2 -10 -4 -10 -5 0 -13 5 -16
10 -3 6 -2 10 4 10 5 0 13 -4 16 -10z m150 -70 c3 -5 2 -10 -4 -10 -5 0 -13 5
-16 10 -3 6 -2 10 4 10 5 0 13 -4 16 -10z m-1715 -242 c0 -15 -58 -36 -130
-47 -41 -7 -76 -14 -78 -16 -6 -6 43 -35 79 -46 63 -19 159 -28 191 -17 46 16
56 -3 23 -46 -22 -29 -34 -36 -64 -37 -20 -1 -49 -5 -66 -9 -23 -6 -16 -8 35
-9 50 0 71 4 90 19 55 43 70 6 18 -47 -31 -32 -34 -33 -122 -34 -83 -1 -217
-15 -171 -18 33 -2 3 -18 -47 -25 -48 -6 -48 -5 -48 24 0 16 -4 51 -9 77 -5
26 -12 81 -15 121 -6 91 5 104 97 113 86 7 217 5 217 -3z m3230 -119 c0 -6 -4
-7 -10 -4 -5 3 -10 11 -10 16 0 6 5 7 10 4 6 -3 10 -11 10 -16z m-333 -11 c-3
-8 -6 -5 -6 6 -1 11 2 17 5 13 3 -3 4 -12 1 -19z m368 2 c3 -5 1 -10 -4 -10
-6 0 -11 5 -11 10 0 6 2 10 4 10 3 0 8 -4 11 -10z m-1768 -52 c-3 -7 -5 -2 -5
12 0 14 2 19 5 13 2 -7 2 -19 0 -25z m1729 -9 l-1 -41 -11 28 c-9 20 -9 33 -2
42 15 17 16 16 14 -29z m-290 -26 c4 -16 15 -46 25 -68 29 -62 27 -65 -46 -65
-41 0 -65 4 -65 11 0 17 64 148 72 149 4 0 11 -12 14 -27z m-1389 -23 c9 -16
21 -30 25 -30 4 0 8 -4 8 -10 0 -6 -10 -5 -25 2 -13 6 -22 14 -20 18 3 4 -2
13 -10 20 -17 14 -20 30 -6 30 6 0 18 -13 28 -30z m1333 6 c0 -3 -4 -8 -10
-11 -5 -3 -10 -1 -10 4 0 6 5 11 10 11 6 0 10 -2 10 -4z m320 -96 c-7 -16 -17
-30 -22 -30 -5 0 -8 3 -6 8 23 48 32 61 36 57 3 -2 -1 -18 -8 -35z m-3174 9
c12 -20 -19 -29 -101 -28 l-80 1 40 19 c44 20 130 25 141 8z m1413 -39 c22 0
23 -2 17 -47 -4 -27 -9 -64 -12 -83 l-4 -35 12 35 c7 19 18 34 23 32 14 -4 7
-79 -10 -111 l-14 -26 -2 25 c-1 14 -1 30 1 35 3 18 -18 -9 -23 -30 -3 -11 -3
12 0 52 l5 72 -33 3 c-29 3 -34 7 -37 31 -5 43 5 60 31 53 12 -3 33 -6 46 -6z
m1841 -11 c0 -6 -4 -7 -10 -4 -5 3 -10 11 -10 16 0 6 5 7 10 4 6 -3 10 -11 10
-16z m-1745 -59 c18 -19 17 -20 -3 -20 -15 0 -22 6 -22 20 0 11 2 20 3 20 2 0
12 -9 22 -20z m85 -32 c0 -6 -7 -5 -15 2 -8 7 -15 17 -15 22 0 6 7 5 15 -2 8
-7 15 -17 15 -22z"/>
<path d="M4185 3811 c-17 -3 -30 -13 -30 -21 0 -12 19 -16 85 -21 47 -3 86 -5
88 -4 1 1 -5 11 -15 23 -20 23 -81 34 -128 23z"/>
<path d="M4760 3601 c0 -12 54 -51 70 -51 9 0 9 4 -1 16 -17 21 -69 47 -69 35z"/>
<path d="M4065 3500 c28 -12 47 -12 40 0 -3 6 -18 10 -33 9 -24 0 -25 -1 -7
-9z"/>
<path d="M4970 3195 c-7 -9 -10 -18 -7 -21 3 -3 10 4 17 15 13 25 8 27 -10 6z"/>
<path d="M1363 2063 c9 -2 23 -2 30 0 6 3 -1 5 -18 5 -16 0 -22 -2 -12 -5z"/>
<path d="M1808 5553 c7 -3 16 -2 19 1 4 3 -2 6 -13 5 -11 0 -14 -3 -6 -6z"/>
<path d="M1692 5420 c0 -14 2 -19 5 -12 2 6 2 18 0 25 -3 6 -5 1 -5 -13z"/>
<path d="M960 4396 l0 -263 38 18 c29 15 85 22 242 34 113 8 213 15 223 15 13
0 17 8 17 33 0 63 -45 201 -62 191 -7 -5 -8 -2 -4 5 5 7 0 19 -10 27 -11 9
-12 12 -5 8 14 -7 1 13 -43 70 -9 10 -20 15 -27 10 -8 -4 -10 -3 -5 4 10 17
-76 69 -153 92 -38 12 -92 20 -137 20 l-74 0 0 -264z"/>
<path d="M3130 4420 c0 -26 101 -62 115 -41 3 6 22 8 43 5 34 -5 36 -4 17 9
-42 30 -175 51 -175 27z"/>
<path d="M2081 3680 c0 -19 4 -53 8 -75 9 -40 9 -40 9 15 0 30 -3 64 -8 75 -7
16 -9 13 -9 -15z"/>
<path d="M1158 3580 c-9 -31 0 -70 17 -70 7 0 15 -9 18 -20 3 -11 9 -20 14
-19 4 1 17 -2 27 -6 13 -6 23 -3 32 9 14 20 36 13 32 -11 -4 -23 19 -27 30 -6
16 29 -36 80 -93 93 -26 6 -50 8 -55 5 -5 -3 -10 7 -12 22 l-3 28 -7 -25z m69
-66 c-3 -3 -12 -4 -19 -1 -8 3 -5 6 6 6 11 1 17 -2 13 -5z"/>
<path d="M1872 3520 c0 -14 2 -19 5 -12 2 6 2 18 0 25 -3 6 -5 1 -5 -13z"/>
<path d="M1445 3520 c-3 -5 2 -10 12 -10 17 -1 17 -2 -1 -15 -18 -14 -18 -16
-3 -33 23 -26 68 -27 74 -2 6 22 18 26 28 10 3 -5 18 -10 33 -9 27 0 27 0 5
11 -31 15 -29 32 2 24 29 -7 32 1 8 20 -21 16 -149 19 -158 4z"/>
<path d="M1294 3292 c3 -5 -10 -24 -29 -42 -19 -19 -35 -44 -35 -56 0 -22 4
-24 110 -39 35 -5 35 -5 10 10 -15 9 -19 15 -10 15 11 0 11 3 -3 11 -11 6 -30
9 -44 6 -17 -3 -21 -1 -14 6 6 6 38 13 71 15 42 3 60 8 60 18 0 8 -4 14 -9 14
-6 0 -8 9 -6 20 4 18 0 20 -29 14 -20 -3 -36 -1 -40 5 -4 6 -14 11 -22 11 -8
0 -13 -4 -10 -8z"/>
<path d="M1420 3225 c0 -8 12 -18 28 -21 15 -4 33 -11 40 -17 7 -5 14 -8 17
-6 9 10 -13 29 -48 44 -33 13 -37 13 -37 0z"/>
<path d="M1403 3165 c10 -10 26 -12 53 -8 36 6 37 7 14 14 -14 4 -38 7 -53 8
-25 1 -27 -1 -14 -14z"/>
<path d="M3275 1820 c-3 -5 1 -10 9 -10 9 0 16 5 16 10 0 6 -4 10 -9 10 -6 0
-13 -4 -16 -10z"/>
<path d="M4377 1809 c7 -7 15 -10 18 -7 3 3 -2 9 -12 12 -14 6 -15 5 -6 -5z"/>
<path d="M1766 1800 c-5 -16 -13 -120 -8 -120 1 0 7 10 12 23 8 21 9 21 9 -5
1 -29 24 -58 47 -58 16 0 16 17 1 83 -7 27 -16 47 -20 45 -5 -2 -15 8 -22 22
-10 19 -15 21 -19 10z"/>
<path d="M4410 1796 c0 -3 9 -10 20 -16 11 -6 20 -8 20 -6 0 3 -9 10 -20 16
-11 6 -20 8 -20 6z"/>
<path d="M3128 1538 c3 -28 8 -33 30 -33 15 0 43 -4 62 -8 l35 -7 -27 21 c-16
11 -28 26 -28 33 0 9 -9 12 -24 9 -13 -3 -27 0 -30 6 -13 21 -22 11 -18 -21z"/>
<path d="M2488 1543 c-25 -6 -39 -57 -45 -163 -3 -52 -10 -103 -15 -112 -14
-28 -46 -21 -67 13 -13 21 -21 27 -25 17 -3 -7 -4 0 -2 15 3 25 1 28 -18 23
-41 -10 -49 6 -36 68 6 30 16 58 21 61 18 12 8 25 -18 25 -67 0 -105 -22 -210
-117 l-105 -96 59 -24 c270 -112 746 -223 953 -223 79 0 106 21 199 157 89
129 95 152 49 186 -24 18 -42 20 -153 20 -94 0 -125 3 -125 12 0 15 -32 25
-85 25 -39 0 -40 -1 -40 -38 -1 -48 -35 -117 -81 -165 -37 -38 -37 -38 -57
-18 -20 19 -20 20 22 102 41 83 52 124 29 117 -7 -3 -26 -45 -43 -94 -27 -78
-34 -89 -56 -92 -15 -2 -32 5 -43 17 l-18 20 -17 -21 c-21 -25 -58 -17 -70 13
-7 19 8 178 23 247 8 32 6 34 -26 25z"/>
<path d="M2612 1446 c-26 -112 -27 -140 -2 -69 17 48 37 163 28 163 -2 0 -13
-42 -26 -94z"/>
<path d="M3387 1526 c-7 -19 1 -26 30 -26 l23 0 -20 20 c-24 24 -26 24 -33 6z"/>
<path d="M1555 1498 c79 -52 148 -85 167 -81 10 3 21 15 24 28 3 13 15 26 27
29 12 3 19 8 16 11 -5 4 -248 45 -274 45 -5 0 13 -15 40 -32z"/>
<path d="M3273 1514 c-9 -9 -4 -13 24 -19 45 -8 49 -4 14 16 -21 12 -29 13
-38 3z"/>
<path d="M1940 1383 c-68 -46 -80 -57 -66 -65 12 -7 26 -4 49 11 37 23 113 98
106 106 -3 2 -43 -21 -89 -52z"/>
<path d="M2978 1413 c12 -2 32 -2 45 0 12 2 2 4 -23 4 -25 0 -35 -2 -22 -4z"/>
<path d="M3068 1403 c12 -2 30 -2 40 0 9 3 -1 5 -23 4 -22 0 -30 -2 -17 -4z"/>
<path d="M3936 1234 c-59 -91 -106 -168 -103 -171 10 -9 67 8 64 20 -1 7 5 10
13 8 25 -8 92 -2 139 12 36 10 46 18 52 41 15 56 81 106 140 106 23 0 40 -9
64 -34 l31 -34 55 23 54 23 -178 86 c-98 47 -188 86 -200 85 -17 0 -47 -39
-131 -165z"/>
<path d="M750 1085 l-23 -24 76 -93 c42 -51 128 -156 191 -233 63 -77 112
-143 108 -147 -4 -3 -122 -43 -262 -89 -140 -45 -257 -84 -259 -86 -3 -2 6
-14 20 -27 l24 -24 254 70 c139 38 255 67 257 65 2 -2 -12 -93 -31 -203 -19
-109 -35 -205 -35 -211 0 -8 14 -13 39 -13 l39 0 42 172 c24 95 45 176 49 180
3 4 54 -51 112 -122 l106 -129 51 52 51 52 -125 134 c-87 93 -121 137 -112
142 7 4 142 42 300 85 l288 78 -53 47 c-28 27 -57 48 -62 49 -6 0 -118 -36
-250 -80 -131 -44 -241 -78 -243 -75 -3 3 20 105 52 226 31 122 55 223 54 225
-2 1 -40 -2 -84 -8 l-81 -10 -33 -194 c-18 -107 -36 -194 -40 -194 -4 0 -86
84 -183 188 -228 244 -208 228 -237 197z"/>
</g>
</svg>
